<svg width="64" height="65" viewBox="0 0 64 65" fill="none" xmlns="http://www.w3.org/2000/svg">
<path fill-rule="evenodd" clip-rule="evenodd" d="M19.8684 10.6133C25.5999 1.53766 38.835 1.53766 44.5665 10.6133L52.8759 23.7711C55.3889 27.7504 52.5295 32.9381 47.8231 32.9381C39.9537 32.9381 36.8117 29.9377 34.7738 18.025L29.6967 18.0427C27.927 29.9734 24.3223 32.9381 14.8234 32.9381L14.8055 38.0639C24.4225 38.0639 29.6967 43.395 29.6967 50.3817C29.6967 56.1733 25.0018 60.8682 19.2102 60.8682H14.629C3.12666 60.8682 -3.86182 48.1894 2.27993 38.4641L19.8684 10.6133ZM45.2782 60.8682C39.4767 60.8682 34.7738 56.1653 34.7738 50.3638C34.7738 43.395 39.4276 38.0639 47.8231 38.0639C50.2458 38.0639 50.6928 38.0639 52.9706 38.0639C58.2442 38.0639 63.9999 41.3568 64 47.8568C64 55.7329 55.0446 60.8682 50.016 60.8682H45.2782Z" fill="#171717"/>
</svg>
