<svg width="411" height="101" viewBox="0 0 411 101" fill="none" xmlns="http://www.w3.org/2000/svg">
<path fill-rule="evenodd" clip-rule="evenodd" d="M186.339 13.7404V0.337402H199.742V13.7404H186.339ZM261.522 35.4882H249.17V27.2534H261.522V12.8426H270.786V27.2534H286.226V35.4882H270.786V60.7073V71.0008C270.786 71.5154 270.889 71.8243 271.198 72.1331C271.507 72.4419 271.815 72.5448 272.33 72.5448H282.624H286.226V80.7796H276.962C266.514 80.7796 261.522 75.7873 261.522 65.3394V35.4882ZM345.553 54.0168C345.553 35.4885 333.201 25.7097 317.658 25.7097C302.115 25.7097 289.763 35.4885 289.763 54.0168C289.763 72.5451 302.115 82.3239 317.658 82.3239C333.201 82.3239 345.553 72.5451 345.553 54.0168ZM299.13 54.0168C299.13 41.15 306.85 33.9445 317.658 33.9445C328.466 33.9445 336.186 41.15 336.186 54.0168C336.186 66.8837 328.466 74.0891 317.658 74.0891C306.85 74.0891 299.13 66.8837 299.13 54.0168ZM384.429 82.3239C397.399 82.3239 410.781 73.5744 410.781 54.0168C410.781 34.4592 397.399 25.7097 384.429 25.7097C376.915 25.7097 370.842 27.9743 366.621 33.3269C366.313 33.7386 366.004 34.0474 365.489 34.0474C364.974 34.0474 364.769 33.7386 364.769 33.224V27.2537H355.607V100.338H364.872V74.9126C364.872 74.3979 365.077 74.0891 365.592 74.0891C366.107 74.0891 366.416 74.3979 366.724 74.8097C370.842 80.0593 376.915 82.3239 384.429 82.3239ZM382.885 33.9445C393.693 33.9445 401.413 41.15 401.413 54.0168C401.413 66.8837 393.693 74.0891 382.885 74.0891C372.077 74.0891 364.357 66.8837 364.357 54.0168C364.357 41.15 372.077 33.9445 382.885 33.9445ZM211.549 80.7796H220.813V50.4138C220.813 40.1203 228.639 35.4925 235.945 35.4925H240.47V27.0475L235.945 27.0475C228.636 27.0475 224.931 29.2092 222.563 34.3559C222.357 34.8706 222.151 35.1794 221.534 35.1794C221.019 35.1794 220.813 34.9735 220.813 34.4588V27.2534H211.549V80.7796ZM188.406 80.7797V27.2535H197.67V80.7797H188.406ZM126.222 65.0308C126.222 55.7667 132.398 50.0538 145.78 49.4877L165.337 48.6642V45.782C165.337 38.1648 161.426 33.7386 151.956 33.7386C142.486 33.7386 138.677 38.1648 138.471 43.7233H128.898C129.31 33.5328 136.516 25.7097 151.956 25.7097C167.396 25.7097 174.293 33.5328 174.293 46.2967V80.7799H165.44V75.1185C165.44 74.7067 165.234 74.5009 164.823 74.5009C164.411 74.5009 164.205 74.6038 163.793 75.1185C159.985 80.2138 154.323 82.3239 147.324 82.3239C133.942 82.3239 126.222 75.3243 126.222 65.0308ZM135.486 65.0308C135.486 70.6923 140.118 74.295 148.353 74.295C158.647 74.295 165.337 68.4277 165.337 57.1049V56.4873L145.78 57.3107C138.574 57.6195 135.486 60.3988 135.486 65.0308ZM65.915 16.6078C57.438 3.18471 37.8629 3.18471 29.3859 16.6078L3.37209 57.7999C-5.71173 72.1839 4.62442 90.9362 21.6366 90.9362H28.4124C36.9783 90.9362 43.9223 83.9922 43.9223 75.4263C43.9223 65.0928 36.1215 57.208 21.8977 57.208L21.9243 49.6268C35.9733 49.6268 41.3048 45.2419 43.9223 27.5961L51.4313 27.5699C54.4455 45.1891 59.0926 49.6268 70.7316 49.6268C77.6925 49.6268 81.9217 41.954 78.2049 36.0686L65.915 16.6078ZM51.4313 75.3999C51.4313 83.9804 58.3871 90.9362 66.9676 90.9362H73.975C81.4125 90.9362 94.6577 83.3409 94.6577 71.692C94.6575 62.0783 86.1447 57.208 78.3449 57.208H70.7316C58.3145 57.208 51.4313 65.0928 51.4313 75.3999Z" fill="#171717"/>
</svg>
